<svg width="90" height="44" viewBox="0 0 90 44" fill="none" xmlns="http://www.w3.org/2000/svg">
<path d="M3 28C3.79565 28 4.55871 28.3161 5.12132 28.8787C5.68393 29.4413 6 30.2044 6 31V44H0V31C0 30.2044 0.31607 29.4413 0.87868 28.8787C1.44129 28.3161 2.20435 28 3 28Z" fill="black"/>
<path d="M17 4C17.7956 4 18.5587 4.31607 19.1213 4.87868C19.6839 5.44129 20 6.20435 20 7V44H14V7C14 6.20435 14.3161 5.44129 14.8787 4.87868C15.4413 4.31607 16.2044 4 17 4Z" fill="black"/>
<path d="M31 22C31.7956 22 32.5587 22.3161 33.1213 22.8787C33.6839 23.4413 34 24.2044 34 25V44H28V25C28 24.2044 28.3161 23.4413 28.8787 22.8787C29.4413 22.3161 30.2044 22 31 22Z" fill="black"/>
<path d="M45 32C45.7956 32 46.5587 32.3161 47.1213 32.8787C47.6839 33.4413 48 34.2044 48 35V44H42V35C42 34.2044 42.3161 33.4413 42.8787 32.8787C43.4413 32.3161 44.2044 32 45 32Z" fill="black"/>
<path d="M59 24C59.7956 24 60.5587 24.3161 61.1213 24.8787C61.6839 25.4413 62 26.2044 62 27V44H56V27C56 26.2044 56.3161 25.4413 56.8787 24.8787C57.4413 24.3161 58.2044 24 59 24Z" fill="black"/>
<path d="M73 28C73.7956 28 74.5587 28.3161 75.1213 28.8787C75.6839 29.4413 76 30.2044 76 31V44H70V31C70 30.2044 70.3161 29.4413 70.8787 28.8787C71.4413 28.3161 72.2044 28 73 28Z" fill="black"/>
<path d="M87 0C87.7956 0 88.5587 0.31607 89.1213 0.87868C89.6839 1.44129 90 2.20435 90 3V44H84V3C84 2.20435 84.3161 1.44129 84.8787 0.87868C85.4413 0.31607 86.2044 0 87 0Z" fill="black"/>
</svg>