<svg width="19" height="15" viewBox="0 0 19 15" fill="none" xmlns="http://www.w3.org/2000/svg">
<path d="M18.2671 2.31708C18.0749 2.1157 17.8434 1.95595 17.5869 1.84775C17.3304 1.73955 17.0545 1.68521 16.7761 1.68808H13.7951V1.65208C13.7971 1.43476 13.7552 1.21928 13.6719 1.01857C13.5885 0.817856 13.4655 0.636055 13.3101 0.484083C13.1571 0.330092 12.9751 0.207943 12.7746 0.124697C12.5742 0.041451 12.3592 -0.00124203 12.1421 -0.000917337H6.75411C6.5358 -0.00276362 6.31928 0.0385736 6.11701 0.120718C5.91474 0.202863 5.7307 0.324194 5.5755 0.477728C5.42029 0.631262 5.29697 0.813971 5.21264 1.01534C5.12831 1.21671 5.08463 1.43277 5.08411 1.65108V1.68708H2.11911C1.84075 1.68421 1.56477 1.73855 1.30829 1.84675C1.05181 1.95495 0.820296 2.1147 0.628109 2.31608C0.23104 2.7117 0.00547435 3.2476 0.000108459 3.80808V12.7531C-0.00276751 13.0314 0.0515804 13.3074 0.159781 13.5639C0.267982 13.8204 0.427727 14.0519 0.629108 14.2441C1.02432 14.6413 1.55983 14.8672 2.12011 14.8731H16.7761C17.0545 14.876 17.3304 14.8216 17.5869 14.7134C17.8434 14.6052 18.0749 14.4455 18.2671 14.2441C18.6643 13.8489 18.8902 13.3134 18.8961 12.7531V3.80808C18.899 3.52973 18.8446 3.25375 18.7364 2.99727C18.6282 2.74078 18.4685 2.50927 18.2671 2.31708ZM17.9621 12.7531H17.9441C17.9445 12.9066 17.9146 13.0586 17.856 13.2005C17.7974 13.3424 17.7114 13.4713 17.6029 13.5799C17.4944 13.6884 17.3654 13.7744 17.2236 13.833C17.0817 13.8915 16.9296 13.9215 16.7761 13.9211H2.11911C1.9657 13.9213 1.81375 13.8913 1.67197 13.8327C1.5302 13.7741 1.4014 13.688 1.29297 13.5795C1.18454 13.471 1.09861 13.3421 1.04012 13.2003C0.981621 13.0585 0.951713 12.9065 0.952109 12.7531V3.80808C0.951713 3.65467 0.981621 3.50269 1.04012 3.36087C1.09861 3.21905 1.18454 3.09018 1.29297 2.98165C1.4014 2.87313 1.5302 2.78709 1.67197 2.72848C1.81375 2.66986 1.9657 2.63982 2.11911 2.64008H5.58611C5.64987 2.64035 5.71306 2.62798 5.77202 2.6037C5.83098 2.57942 5.88456 2.54371 5.92965 2.49862C5.97473 2.45353 6.01045 2.39996 6.03473 2.341C6.05901 2.28204 6.07137 2.21885 6.07111 2.15508V1.63408C6.06775 1.54125 6.08356 1.44873 6.11755 1.36228C6.15154 1.27583 6.20298 1.19732 6.26866 1.13164C6.33434 1.06595 6.41286 1.01451 6.49931 0.980524C6.58575 0.946534 6.67828 0.930725 6.77111 0.934084H12.1421C12.2349 0.930725 12.3275 0.946534 12.4139 0.980524C12.5004 1.01451 12.5789 1.06595 12.6446 1.13164C12.7102 1.19732 12.7617 1.27583 12.7957 1.36228C12.8297 1.44873 12.8455 1.54125 12.8421 1.63408V2.15508C12.8418 2.21885 12.8542 2.28204 12.8785 2.341C12.9028 2.39996 12.9385 2.45353 12.9836 2.49862C13.0287 2.54371 13.0822 2.57942 13.1412 2.6037C13.2002 2.62798 13.2633 2.64035 13.3271 2.64008H16.7941C16.9476 2.63969 17.0997 2.66963 17.2416 2.72819C17.3834 2.78674 17.5124 2.87276 17.6209 2.9813C17.7294 3.08984 17.8154 3.21875 17.874 3.36064C17.9326 3.50253 17.9625 3.65459 17.9621 3.80808V12.7531Z" fill="white"/>
<path d="M9.44789 3.8623C8.42659 3.86306 7.43714 4.21785 6.64808 4.86627C5.85902 5.51469 5.31917 6.41662 5.12049 7.41841C4.92181 8.4202 5.07658 9.45989 5.55844 10.3604C6.04031 11.2608 6.81946 11.9664 7.76317 12.3569C8.70688 12.7474 9.75678 12.7986 10.734 12.5018C11.7113 12.205 12.5554 11.5787 13.1226 10.7294C13.6898 9.88005 13.9451 8.86037 13.8448 7.84399C13.7446 6.82762 13.2951 5.87744 12.5729 5.1553C11.7434 4.32763 10.6196 3.86265 9.44789 3.8623ZM11.8909 10.7413C11.2412 11.3858 10.3631 11.7474 9.44789 11.7474C8.53272 11.7474 7.65463 11.3858 7.00489 10.7413C6.68421 10.4207 6.43021 10.0397 6.25755 9.62042C6.08488 9.20112 5.99697 8.75176 5.99889 8.29829C6.00325 7.38402 6.36418 6.50753 7.00489 5.8553C7.32551 5.53462 7.70646 5.28062 8.12577 5.10796C8.54508 4.93529 8.99443 4.84738 9.44789 4.8493C10.3622 4.85366 11.2387 5.21459 11.8909 5.8553C12.2116 6.17592 12.4656 6.55687 12.6382 6.97618C12.8109 7.39549 12.8988 7.84483 12.8969 8.29829C12.9028 8.75241 12.8166 9.20302 12.6435 9.62291C12.4705 10.0428 12.2151 10.4233 11.8909 10.7413Z" fill="white"/>
<path d="M15.8419 5.60424C16.3279 5.60424 16.7219 5.21025 16.7219 4.72424C16.7219 4.23823 16.3279 3.84424 15.8419 3.84424C15.3559 3.84424 14.9619 4.23823 14.9619 4.72424C14.9619 5.21025 15.3559 5.60424 15.8419 5.60424Z" fill="white"/>
</svg>
