<svg width="49" height="37" viewBox="0 0 49 37" fill="none" xmlns="http://www.w3.org/2000/svg">
<g opacity="0.06">
<path d="M39.7472 12.229H36.6882L37.6102 1.64599C37.6102 1.62699 37.6102 1.60799 37.6102 1.58899C37.6099 1.45034 37.5692 1.31479 37.493 1.19897C37.4167 1.08315 37.3084 0.992096 37.1812 0.936989H37.1752L37.1262 0.918991L37.1102 0.905991L37.0692 0.894989L37.0402 0.887993L37.0032 0.881989H36.9682H22.3342C22.1453 0.881989 21.9642 0.957004 21.8307 1.09053C21.6972 1.22406 21.6222 1.40515 21.6222 1.59399C21.6222 1.78282 21.6972 1.96392 21.8307 2.09745C21.9642 2.23098 22.1453 2.30599 22.3342 2.30599H36.1242L34.7102 18.561L34.3532 22.661H9.61716L10.0312 18.391H14.7402C14.929 18.391 15.1101 18.316 15.2436 18.1824C15.3771 18.0489 15.4522 17.8678 15.4522 17.679C15.4522 17.4902 15.3771 17.3091 15.2436 17.1755C15.1101 17.042 14.929 16.967 14.7402 16.967H10.1692L11.0422 7.95199H18.5372C18.726 7.95199 18.9071 7.87697 19.0406 7.74345C19.1741 7.60992 19.2492 7.42882 19.2492 7.23999C19.2492 7.05116 19.1741 6.87005 19.0406 6.73653C18.9071 6.603 18.726 6.52799 18.5372 6.52799H11.1802L11.5912 2.28899H19.4912C19.68 2.28899 19.8611 2.21398 19.9946 2.08045C20.1281 1.94693 20.2032 1.76582 20.2032 1.57699C20.2032 1.38815 20.1281 1.20706 19.9946 1.07353C19.8611 0.940006 19.68 0.86499 19.4912 0.86499H10.9442C10.7816 0.865223 10.6239 0.921103 10.4975 1.02335C10.371 1.12559 10.2834 1.26803 10.2492 1.42699V1.43399C10.2492 1.45199 10.2432 1.46999 10.2412 1.48799C10.2392 1.50599 10.2412 1.49899 10.2412 1.50499L9.75016 6.53499H1.12216C0.933322 6.53499 0.752222 6.61 0.618696 6.74353C0.48517 6.87706 0.410156 7.05815 0.410156 7.24699C0.410156 7.43582 0.48517 7.61692 0.618696 7.75045C0.752222 7.88398 0.933322 7.95899 1.12216 7.95899H9.61016L8.73716 16.974H6.19916C6.01032 16.974 5.82922 17.049 5.6957 17.1825C5.56217 17.3161 5.48716 17.4972 5.48716 17.686C5.48716 17.8748 5.56217 18.0559 5.6957 18.1894C5.82922 18.323 6.01032 18.398 6.19916 18.398H8.59916L8.12516 23.306L7.39016 30.896V30.906C7.39016 30.916 7.39016 30.926 7.39016 30.935C7.39016 30.944 7.39016 30.961 7.39016 30.974C7.39016 30.992 7.39016 31.01 7.39016 31.028C7.39016 31.046 7.39016 31.04 7.39016 31.045C7.39016 31.05 7.39516 31.082 7.39816 31.1C7.40116 31.118 7.39816 31.111 7.39816 31.116C7.39816 31.121 7.40516 31.143 7.40816 31.156C7.41116 31.169 7.40816 31.175 7.41516 31.184V31.192C7.44914 31.2968 7.50699 31.3923 7.58416 31.471L7.60816 31.493C7.65752 31.5383 7.71307 31.5763 7.77316 31.606L7.81116 31.624H7.82316L7.87716 31.644H7.88216C7.90316 31.65 7.92416 31.656 7.94616 31.66H7.95516C7.97616 31.66 7.99616 31.667 8.01816 31.669C8.04149 31.669 8.06449 31.669 8.08716 31.669H11.2572C11.4298 32.9712 12.0697 34.1663 13.0577 35.032C14.0457 35.8977 15.3146 36.3749 16.6282 36.3749C17.9418 36.3749 19.2106 35.8977 20.1986 35.032C21.1866 34.1663 21.8265 32.9712 21.9992 31.669H33.4272C33.5998 32.9712 34.2397 34.1663 35.2277 35.032C36.2157 35.8977 37.4846 36.3749 38.7982 36.3749C40.1118 36.3749 41.3806 35.8977 42.3686 35.032C43.3566 34.1663 43.9965 32.9712 44.1692 31.669H47.3402C47.3642 31.669 47.3872 31.669 47.4102 31.669H47.4222L47.4772 31.661L47.5002 31.656L47.5422 31.645L47.5692 31.636L47.6042 31.623L47.6332 31.611L47.6642 31.596L47.6922 31.581L47.7212 31.563L47.7472 31.545L47.7752 31.524L47.7982 31.505L47.8262 31.479L47.8452 31.46L47.8742 31.429L47.8892 31.412C47.8992 31.399 47.9092 31.386 47.9182 31.372L47.9282 31.358C47.9402 31.341 47.9502 31.323 47.9612 31.304C47.9722 31.284 47.9822 31.264 47.9902 31.243L47.9972 31.225C48.0032 31.21 48.0082 31.196 48.0132 31.18C48.0182 31.164 48.0182 31.16 48.0212 31.15C48.0242 31.14 48.0272 31.126 48.0302 31.114C48.0332 31.102 48.0302 31.092 48.0362 31.081C48.0422 31.07 48.0362 31.062 48.0362 31.052C48.0662 30.81 48.6242 26.338 48.8722 23.447V23.439C48.9442 22.605 48.9902 21.904 48.9902 21.474C48.9851 19.024 48.0098 16.6757 46.2775 14.943C44.5453 13.2104 42.1972 12.2345 39.7472 12.229ZM36.5642 13.653H39.4762L39.1042 17.923H36.1922L36.5642 13.653ZM16.6392 34.968C15.848 34.968 15.0747 34.7334 14.4169 34.2939C13.7591 33.8543 13.2464 33.2296 12.9436 32.4987C12.6409 31.7678 12.5617 30.9636 12.716 30.1876C12.8704 29.4117 13.2513 28.699 13.8107 28.1396C14.3701 27.5802 15.0829 27.1992 15.8588 27.0448C16.6347 26.8905 17.439 26.9697 18.1699 27.2725C18.9008 27.5752 19.5255 28.0879 19.965 28.7457C20.4046 29.4035 20.6392 30.1769 20.6392 30.968C20.6392 32.0289 20.2177 33.0463 19.4676 33.7964C18.7174 34.5466 17.7 34.968 16.6392 34.968ZM38.7982 34.968C38.007 34.968 37.2337 34.7334 36.5759 34.2939C35.9181 33.8543 35.4054 33.2296 35.1026 32.4987C34.7999 31.7678 34.7207 30.9636 34.875 30.1876C35.0294 29.4117 35.4103 28.699 35.9697 28.1396C36.5291 27.5802 37.2419 27.1992 38.0178 27.0448C38.7937 26.8905 39.598 26.9697 40.3289 27.2725C41.0598 27.5752 41.6845 28.0879 42.124 28.7457C42.5636 29.4035 42.7982 30.1769 42.7982 30.968C42.7982 32.0289 42.3767 33.0463 41.6266 33.7964C40.8764 34.5466 39.859 34.968 38.7982 34.968ZM46.7102 30.26H44.1702C43.9975 28.9578 43.3576 27.7627 42.3696 26.897C41.3816 26.0313 40.1128 25.5541 38.7992 25.5541C37.4856 25.5541 36.2167 26.0313 35.2287 26.897C34.2407 27.7627 33.6008 28.9578 33.4282 30.26H22.0102C21.8375 28.9578 21.1976 27.7627 20.2096 26.897C19.2216 26.0313 17.9528 25.5541 16.6392 25.5541C15.3256 25.5541 14.0567 26.0313 13.0687 26.897C12.0807 27.7627 11.4408 28.9578 11.2682 30.26H8.88216L9.48216 24.091H35.0032C35.0268 24.0922 35.0505 24.0922 35.0742 24.091H35.0872L35.1422 24.083L35.1652 24.077L35.2072 24.066L35.2352 24.057L35.2702 24.044L35.2992 24.031L35.3322 24.006L35.3612 23.99L35.3902 23.972L35.4172 23.953L35.4452 23.932L35.4692 23.912L35.4952 23.888L35.5162 23.867L35.5412 23.839L35.5602 23.817L35.5832 23.786L35.5992 23.762L35.6192 23.729L35.6332 23.704C35.6392 23.693 35.6442 23.681 35.6502 23.67L35.6622 23.642C35.6622 23.631 35.6712 23.619 35.6752 23.608C35.6792 23.597 35.6822 23.588 35.6852 23.577C35.6882 23.566 35.6912 23.555 35.6942 23.544C35.6972 23.533 35.7002 23.521 35.7022 23.51C35.7042 23.499 35.7022 23.487 35.7072 23.476C35.7122 23.465 35.7072 23.453 35.7072 23.441V23.436L36.0642 19.336H39.7432C41.9242 19.336 42.9072 20.466 43.9492 21.662C44.7689 22.846 45.9972 23.6854 47.3982 24.019C47.1942 26.219 46.8602 29.03 46.7102 30.26ZM47.5232 22.603C46.5003 22.2871 45.6174 21.6285 45.0232 20.738C44.501 19.9941 43.8326 19.3646 43.0589 18.8878C42.2852 18.411 41.4224 18.097 40.5232 17.965L40.8912 13.737C42.7469 14.0151 44.4413 14.9494 45.6668 16.3703C46.8923 17.7913 47.5677 19.6046 47.5702 21.481C47.5772 21.749 47.5572 22.137 47.5232 22.606V22.603Z" fill="black"/>
</g>
</svg>
