<svg width="21" height="19" viewBox="0 0 21 19" fill="none" xmlns="http://www.w3.org/2000/svg">
<path d="M7.89765 17.17V11.686H12.2846V17.17C12.2846 17.3145 12.3131 17.4575 12.3684 17.591C12.4237 17.7244 12.5047 17.8457 12.6068 17.9478C12.709 18.05 12.8302 18.131 12.9637 18.1863C13.0972 18.2416 13.2402 18.27 13.3847 18.27H16.6747C16.9664 18.27 17.2462 18.1541 17.4525 17.9478C17.6588 17.7415 17.7747 17.4618 17.7747 17.17V9.49202H19.6387C19.7498 9.49293 19.8585 9.45978 19.9503 9.39703C20.042 9.33428 20.1123 9.24494 20.1517 9.14103C20.1912 9.03712 20.1978 8.92362 20.1708 8.81581C20.1438 8.70801 20.0844 8.61106 20.0007 8.53802L10.8226 0.280016C10.6203 0.0997347 10.3587 0.00012207 10.0877 0.00012207C9.81662 0.00012207 9.55503 0.0997347 9.35265 0.280016L0.18365 8.53802C0.100974 8.61154 0.0425856 8.70845 0.0162191 8.8159C-0.0101475 8.92335 -0.00324779 9.03628 0.0360042 9.13972C0.0752562 9.24317 0.145008 9.33224 0.23602 9.39515C0.327033 9.45807 0.435011 9.49185 0.54565 9.49202H2.41065V17.169C2.41065 17.4608 2.52654 17.7405 2.73283 17.9468C2.93912 18.1531 3.21891 18.269 3.51065 18.269H6.79765C7.08922 18.269 7.36885 18.1533 7.57511 17.9472C7.78138 17.7411 7.89739 17.4616 7.89765 17.17Z" fill="#8C8C8C"/>
</svg>
