<svg width="36" height="45" viewBox="0 0 36 45" fill="none" xmlns="http://www.w3.org/2000/svg">
<g opacity="0.06">
<path d="M35.2918 36.583L33.3668 12.3291C33.3061 11.5716 32.9632 10.8646 32.4059 10.3481C31.8486 9.83152 31.1176 9.54314 30.3578 9.54005H26.5578V9.37105C26.5578 7.1614 25.68 5.04225 24.1175 3.47979C22.5551 1.91733 20.4359 1.03955 18.2263 1.03955C16.0166 1.03955 13.8975 1.91733 12.335 3.47979C10.7726 5.04225 9.89478 7.1614 9.89478 9.37105V9.54005H6.09478C5.33599 9.54303 4.60594 9.83061 4.04896 10.3459C3.49199 10.8612 3.14863 11.5668 3.08678 12.3231L1.15778 36.5861C1.08378 37.5503 1.20987 38.5194 1.52814 39.4326C1.8464 40.3459 2.34997 41.1834 3.00725 41.8928C3.66453 42.6022 4.46133 43.1681 5.34765 43.555C6.23398 43.9419 7.1907 44.1414 8.15778 44.1411H28.2948C29.2621 44.1414 30.2191 43.9418 31.1057 43.5548C31.9922 43.1677 32.7892 42.6015 33.4465 41.8918C34.1038 41.1821 34.6073 40.3441 34.9254 39.4306C35.2435 38.517 35.3692 37.5475 35.2948 36.583H35.2918ZM12.4178 9.37105C12.4378 7.84427 13.0584 6.38681 14.1451 5.31423C15.2319 4.24165 16.6974 3.64025 18.2243 3.64025C19.7512 3.64025 21.2167 4.24165 22.3034 5.31423C23.3902 6.38681 24.0107 7.84427 24.0308 9.37105V9.54005H12.4178V9.37105ZM31.5908 40.1711C31.1715 40.6279 30.6613 40.992 30.093 41.24C29.5247 41.488 28.9108 41.6144 28.2908 41.611H8.15578C7.53702 41.611 6.92493 41.4832 6.35787 41.2356C5.79082 40.988 5.28102 40.626 4.86042 40.1721C4.43982 39.7183 4.1175 39.1825 3.91365 38.5983C3.7098 38.014 3.62882 37.394 3.67578 36.7771L5.60078 12.5161C5.6119 12.3929 5.66823 12.2783 5.7589 12.1943C5.84958 12.1102 5.96817 12.0628 6.09178 12.0611H9.89178V15.1701C9.89178 15.5049 10.0248 15.826 10.2616 16.0628C10.4983 16.2995 10.8194 16.4326 11.1543 16.4326C11.4891 16.4326 11.8102 16.2995 12.047 16.0628C12.2838 15.826 12.4168 15.5049 12.4168 15.1701V12.0671H24.0318V15.1761C24.0318 15.5109 24.1648 15.832 24.4016 16.0688C24.6383 16.3055 24.9594 16.4386 25.2943 16.4386C25.6291 16.4386 25.9502 16.3055 26.187 16.0688C26.4238 15.832 26.5568 15.5109 26.5568 15.1761V12.0671H30.3568C30.481 12.0686 30.6003 12.1164 30.6912 12.201C30.7822 12.2857 30.8384 12.4012 30.8488 12.5251L32.7738 36.779C32.8241 37.3964 32.7448 38.0175 32.5411 38.6025C32.3374 39.1875 32.0137 39.7234 31.5908 40.1761V40.1711Z" fill="black" stroke="white"/>
</g>
</svg>
