<svg width="16" height="20" viewBox="0 0 16 20" fill="none" xmlns="http://www.w3.org/2000/svg">
<path d="M12.3746 2.23901V4.47801H3.4206V2.23901H0.620605V19.105H15.1726V2.23901H12.3746ZM3.9746 17.06L2.45961 15.545L3.25161 14.753L3.97561 15.477L5.8206 13.639L6.6126 14.431L3.9746 17.06ZM3.9746 13.702L2.45961 12.187L3.25161 11.395L3.97561 12.119L5.8206 10.276L6.6126 11.068L3.9746 13.702ZM3.9746 10.344L2.4636 8.82901L3.2556 8.03701L3.97961 8.76102L5.8206 6.91801L6.6126 7.71001L3.9746 10.344ZM12.9296 15.709H7.32961V14.59H12.9296V15.709ZM12.9296 12.351H7.32961V11.232H12.9296V12.351ZM12.9296 8.99301H7.32961V7.87302H12.9296V8.99301Z" fill="black"/>
<path d="M9.01657 1.11901C9.01657 0.822102 8.89862 0.537353 8.68867 0.327406C8.47873 0.117459 8.19399 -0.000488281 7.89708 -0.000488281C7.60017 -0.000488281 7.31542 0.117459 7.10547 0.327406C6.89552 0.537353 6.77757 0.822102 6.77757 1.11901H4.53857V3.35801H11.2556V1.11901H9.01657Z" fill="black"/>
</svg>
