<svg width="35" height="46" viewBox="0 0 35 46" fill="none" xmlns="http://www.w3.org/2000/svg">
<g opacity="0.06">
<path d="M32.9192 25.224L26.1632 14.633C26.6736 14.3677 27.0969 13.9613 27.3828 13.4621C27.6686 12.963 27.805 12.3923 27.7756 11.8178C27.7462 11.2434 27.5523 10.6895 27.2169 10.2222C26.8816 9.75487 26.419 9.3938 25.8842 9.18199L27.9352 2.02699C27.9785 1.87539 27.9805 1.71496 27.941 1.56234C27.9014 1.40972 27.8217 1.27046 27.7102 1.15899C27.0543 0.506197 26.1666 0.139722 25.2412 0.139722C24.3159 0.139722 23.4281 0.506197 22.7722 1.15899C22.6121 1.31867 22.422 1.44506 22.2127 1.53088C22.0035 1.61669 21.7794 1.66023 21.5532 1.65899C21.3263 1.65953 21.1015 1.61498 20.8919 1.52795C20.6823 1.44092 20.4921 1.31313 20.3322 1.15199C19.6777 0.500566 18.7923 0.134194 17.8689 0.132695C16.9455 0.131197 16.0589 0.494693 15.4022 1.14399L15.3772 1.16899C15.0537 1.49032 14.6162 1.67066 14.1602 1.67066C13.7042 1.67066 13.2668 1.49032 12.9432 1.16899L12.9372 1.16299C12.2813 0.510197 11.3936 0.143722 10.4682 0.143722C9.54286 0.143722 8.65514 0.510197 7.99924 1.16299C7.88757 1.27455 7.8078 1.41399 7.76823 1.5668C7.72866 1.71962 7.73074 1.88025 7.77424 2.03199L9.82524 9.18499C9.29071 9.39604 8.82805 9.75619 8.49228 10.2226C8.15652 10.689 7.96178 11.242 7.93123 11.8159C7.90069 12.3898 8.03561 12.9603 8.31997 13.4597C8.60432 13.9592 9.02613 14.3664 9.53524 14.633L2.77924 25.223C1.5155 27.2038 0.807516 29.488 0.729412 31.8363C0.651308 34.1847 1.20595 36.5108 2.33529 38.5713C3.46462 40.6317 5.12709 42.3507 7.14868 43.5481C9.17026 44.7456 11.4766 45.3776 13.8262 45.378H21.8702C24.2199 45.3779 26.5263 44.7461 28.548 43.5488C30.5697 42.3515 32.2324 40.6327 33.3619 38.5724C34.4915 36.512 35.0464 34.1859 34.9685 31.8376C34.8906 29.4892 34.1828 27.205 32.9192 25.224ZM11.6782 2.40899L11.6842 2.41499C12.3387 3.06641 13.2242 3.43278 14.1476 3.43428C15.071 3.43578 15.9576 3.07228 16.6142 2.42299L16.6392 2.39799C16.9638 2.07709 17.4021 1.89761 17.8585 1.89874C18.3149 1.89986 18.7523 2.08149 19.0752 2.40399C19.7311 3.05678 20.6189 3.42326 21.5442 3.42326C22.4696 3.42326 23.3573 3.05678 24.0132 2.40399C24.2774 2.14052 24.6198 1.96968 24.9892 1.91704C25.3585 1.86441 25.735 1.9328 26.0622 2.11199L24.1072 8.96699H11.5942L9.62924 2.11599C9.95659 1.93693 10.3331 1.8687 10.7025 1.92152C11.0719 1.97433 11.4142 2.14536 11.6782 2.40899ZM31.8122 37.723C30.8476 39.5161 29.4119 41.012 27.66 42.0495C25.9081 43.0871 23.9063 43.6269 21.8702 43.611H13.8262C11.7934 43.6111 9.79791 43.0646 8.04873 42.0288C6.29956 40.9931 4.86103 39.506 3.88379 37.7235C2.90654 35.941 2.42651 33.9285 2.49397 31.8967C2.56143 29.865 3.1739 27.8888 4.26724 26.175L11.4102 14.975H13.8712C13.9873 14.975 14.1023 14.9521 14.2095 14.9077C14.3168 14.8633 14.4142 14.7982 14.4963 14.7161C14.5784 14.634 14.6435 14.5365 14.6879 14.4293C14.7324 14.322 14.7552 14.2071 14.7552 14.091C14.7552 13.9749 14.7324 13.8599 14.6879 13.7527C14.6435 13.6454 14.5784 13.548 14.4963 13.4659C14.4142 13.3838 14.3168 13.3187 14.2095 13.2743C14.1023 13.2299 13.9873 13.207 13.8712 13.207H10.9252C10.597 13.207 10.2823 13.0766 10.0502 12.8445C9.81812 12.6125 9.68774 12.2977 9.68774 11.9695C9.68774 11.6413 9.81812 11.3265 10.0502 11.0944C10.2823 10.8624 10.597 10.732 10.9252 10.732H24.7712C25.0994 10.732 25.4142 10.8624 25.6463 11.0944C25.8784 11.3265 26.0087 11.6413 26.0087 11.9695C26.0087 12.2977 25.8784 12.6125 25.6463 12.8445C25.4142 13.0766 25.0994 13.207 24.7712 13.207H21.8252C21.7091 13.207 21.5942 13.2299 21.4869 13.2743C21.3797 13.3187 21.2822 13.3838 21.2002 13.4659C21.1181 13.548 21.053 13.6454 21.0085 13.7527C20.9641 13.8599 20.9412 13.9749 20.9412 14.091C20.9412 14.2071 20.9641 14.322 21.0085 14.4293C21.053 14.5365 21.1181 14.634 21.2002 14.7161C21.2822 14.7982 21.3797 14.8633 21.4869 14.9077C21.5942 14.9521 21.7091 14.975 21.8252 14.975H24.2862L31.4292 26.175C32.5376 27.8829 33.159 29.8608 33.2265 31.8957C33.294 33.9306 32.805 35.9454 31.8122 37.723Z" fill="black"/>
<path d="M19.4065 28.993C19.1845 28.915 18.9585 28.833 18.7325 28.748V24.743C19.0937 24.8478 19.4365 25.008 19.7485 25.218C19.9361 25.3518 20.1686 25.407 20.3964 25.3718C20.6242 25.3367 20.8292 25.214 20.9678 25.0299C21.1065 24.8457 21.1677 24.6147 21.1385 24.3861C21.1093 24.1575 20.9919 23.9494 20.8115 23.806C20.1879 23.3693 19.4791 23.0694 18.7315 22.926V22.046C18.7355 21.9275 18.7156 21.8094 18.673 21.6987C18.6304 21.588 18.5659 21.487 18.4835 21.4018C18.401 21.3165 18.3023 21.2487 18.1931 21.2024C18.0839 21.1561 17.9666 21.1323 17.848 21.1323C17.7294 21.1323 17.612 21.1561 17.5028 21.2024C17.3936 21.2487 17.2949 21.3165 17.2125 21.4018C17.13 21.487 17.0656 21.588 17.023 21.6987C16.9804 21.8094 16.9605 21.9275 16.9645 22.046V22.919C16.811 22.9482 16.6591 22.9852 16.5095 23.03C15.8891 23.2251 15.3344 23.5874 14.9064 24.0771C14.4785 24.5669 14.1937 25.165 14.0835 25.806C13.9558 26.3631 13.9836 26.9446 14.1638 27.4871C14.3441 28.0295 14.6698 28.512 15.1055 28.882C15.6785 29.3112 16.3035 29.6663 16.9655 29.939V35.064C16.2632 35.0255 15.5884 34.7783 15.0275 34.354C14.9304 34.2875 14.821 34.2411 14.7058 34.2175C14.5906 34.1938 14.4718 34.1934 14.3564 34.2162C14.241 34.2391 14.1313 34.2847 14.0338 34.3505C13.9362 34.4163 13.8528 34.5009 13.7884 34.5993C13.724 34.6977 13.6798 34.808 13.6586 34.9237C13.6373 35.0394 13.6394 35.1582 13.6646 35.2731C13.6899 35.388 13.7378 35.4967 13.8056 35.5929C13.8734 35.689 13.9597 35.7706 14.0595 35.833C14.9054 36.4504 15.9177 36.7989 16.9645 36.833V37.747C16.9605 37.8655 16.9804 37.9836 17.023 38.0943C17.0656 38.205 17.13 38.306 17.2125 38.3912C17.2949 38.4765 17.3936 38.5443 17.5028 38.5906C17.612 38.6369 17.7294 38.6607 17.848 38.6607C17.9666 38.6607 18.0839 38.6369 18.1931 38.5906C18.3023 38.5443 18.401 38.4765 18.4835 38.3912C18.5659 38.306 18.6304 38.205 18.673 38.0943C18.7156 37.9836 18.7355 37.8655 18.7315 37.747V36.741C19.5564 36.5506 20.306 36.1187 20.8845 35.5005C21.463 34.8823 21.8442 34.1058 21.9795 33.27C22.1529 32.3653 21.9863 31.4285 21.5114 30.6391C21.0366 29.8498 20.287 29.2636 19.4065 28.993ZM16.1955 27.493C16.0163 27.3215 15.8868 27.1048 15.8206 26.8657C15.7544 26.6267 15.754 26.3742 15.8195 26.135C15.871 25.8226 16.0039 25.5293 16.205 25.2848C16.406 25.0402 16.668 24.853 16.9645 24.742V27.979C16.6947 27.8394 16.4374 27.6768 16.1955 27.493ZM20.2365 32.979C20.167 33.3982 19.9932 33.7932 19.7311 34.1277C19.4689 34.4621 19.1269 34.7253 18.7365 34.893V30.63L18.8215 30.661C19.3056 30.7984 19.7201 31.1132 19.9823 31.5426C20.2446 31.9721 20.3353 32.4856 20.2365 32.979Z" fill="black"/>
<path d="M17.8482 14.976C18.0527 14.976 18.2509 14.9052 18.409 14.7755C18.5672 14.6457 18.6754 14.4652 18.7153 14.2646C18.7553 14.064 18.7244 13.8558 18.628 13.6754C18.5317 13.495 18.3757 13.3536 18.1868 13.2753C17.9978 13.1971 17.7876 13.1867 17.5919 13.246C17.3962 13.3054 17.2271 13.4307 17.1134 13.6008C16.9998 13.7708 16.9486 13.975 16.9686 14.1785C16.9886 14.3821 17.0786 14.5724 17.2232 14.717C17.3894 14.8822 17.6139 14.9752 17.8482 14.976Z" fill="black"/>
</g>
</svg>
