<svg width="512" height="512" viewBox="0 0 512 512" fill="none" xmlns="http://www.w3.org/2000/svg">
<rect width="512" height="512" fill="black"/>
<g clip-path="url(#clip0_517_5695)">
<path d="M386.219 119.013C385.827 114.348 383.695 110.001 380.246 106.835C376.798 103.669 372.285 101.915 367.603 101.922H122.586C120.1 101.861 117.631 102.344 115.351 103.338C113.072 104.332 111.037 105.812 109.39 107.675C107.743 109.538 106.524 111.739 105.817 114.123C105.11 116.507 104.934 119.017 105.3 121.477C114.725 205.404 175.265 388.513 71.04 411.079H119.535C156.749 411.08 193.554 403.324 227.603 388.307C261.652 373.29 292.197 351.341 317.29 323.86C342.382 296.379 361.472 263.97 373.34 228.7C385.208 193.43 389.594 156.073 386.219 119.013Z" fill="white"/>
<path d="M402.527 119.325C411.444 201.454 373.626 279.672 326.069 331.883C310.918 348.424 293.85 363.102 275.228 375.607C358.217 331.765 432.68 247.525 440.228 145.92L402.527 119.325Z" fill="white"/>
<path d="M205.183 140.092C205.183 143.302 204.231 146.44 202.448 149.109C200.664 151.778 198.13 153.859 195.164 155.087C192.198 156.316 188.935 156.637 185.787 156.011C182.638 155.384 179.746 153.839 177.476 151.569C175.207 149.299 173.661 146.407 173.035 143.259C172.408 140.11 172.73 136.847 173.958 133.881C175.187 130.916 177.267 128.381 179.936 126.597C182.605 124.814 185.743 123.862 188.953 123.862C191.086 123.857 193.199 124.273 195.17 125.087C197.142 125.901 198.933 127.096 200.441 128.604C201.949 130.112 203.144 131.904 203.958 133.875C204.772 135.847 205.188 137.96 205.183 140.092Z" fill="black"/>
<path d="M316.019 140.092C316.019 143.302 315.067 146.44 313.284 149.109C311.5 151.778 308.966 153.859 306 155.087C303.034 156.316 299.771 156.637 296.622 156.011C293.474 155.384 290.582 153.839 288.312 151.569C286.042 149.299 284.497 146.407 283.87 143.259C283.244 140.11 283.566 136.847 284.794 133.881C286.022 130.916 288.103 128.381 290.772 126.597C293.441 124.814 296.579 123.862 299.789 123.862C301.922 123.857 304.035 124.273 306.006 125.087C307.977 125.901 309.769 127.096 311.277 128.604C312.785 130.112 313.98 131.904 314.794 133.875C315.608 135.847 316.024 137.96 316.019 140.092Z" fill="black"/>
<path d="M183.518 141.813H194.468V225.428C194.468 238.673 199.73 251.376 209.096 260.742C218.462 270.108 231.165 275.37 244.41 275.37C257.656 275.37 270.359 270.108 279.725 260.742C289.091 251.376 294.352 238.673 294.352 225.428V141.813H305.303V225.428C305.303 241.578 298.887 257.066 287.468 268.486C276.048 279.905 260.56 286.321 244.41 286.321C228.261 286.321 212.772 279.905 201.353 268.486C189.933 257.066 183.518 241.578 183.518 225.428V141.813Z" fill="black"/>
</g>
<defs>
<clipPath id="clip0_517_5695">
<rect width="369.306" height="309" fill="white" transform="translate(71 102)"/>
</clipPath>
</defs>
</svg>
