<svg width="198" height="171" viewBox="0 0 198 171" fill="none" xmlns="http://www.w3.org/2000/svg">
<path d="M1.21015 135.856C1.52585 134.049 2.21862 132.436 3.28846 131.015C4.35831 129.577 5.67369 128.463 7.23462 127.674C8.79554 126.867 10.4529 126.464 12.2068 126.464C14.2763 126.464 15.9775 126.972 17.3105 127.99C18.6609 128.989 19.4765 130.401 19.7571 132.225H15.5215C15.2409 131.453 14.7674 130.866 14.1009 130.462C13.4345 130.059 12.6102 129.857 11.628 129.857C10.5406 129.857 9.53215 130.103 8.60262 130.594C7.67308 131.085 6.89262 131.787 6.26123 132.699C5.62985 133.611 5.20892 134.663 4.99846 135.856C4.91077 136.276 4.86692 136.759 4.86692 137.302C4.86692 138.741 5.28785 139.872 6.12969 140.696C6.98908 141.503 8.16415 141.906 9.65492 141.906C11.0405 141.906 12.2506 141.529 13.2854 140.775C14.3377 140.021 15.1182 138.977 15.6268 137.644H9.31292L9.78646 134.856H19.7308L19.152 138.065C18.6785 139.346 17.9418 140.53 16.9422 141.617C15.9425 142.704 14.7498 143.581 13.3643 144.248C11.9788 144.897 10.4968 145.221 8.91831 145.221C7.35739 145.221 5.98062 144.905 4.788 144.274C3.61292 143.643 2.69215 142.766 2.02569 141.643C1.37677 140.503 1.05231 139.188 1.05231 137.697C1.05231 137.101 1.10492 136.487 1.21015 135.856ZM26.4807 133.067C27.1121 132.19 27.8487 131.506 28.6906 131.015C29.5324 130.524 30.4444 130.278 31.4266 130.278L30.7426 134.146H29.7692C28.6818 134.146 27.8049 134.382 27.1384 134.856C26.4895 135.329 26.016 136.136 25.7178 137.276L24.3498 145.063H20.6404L23.2186 130.489H26.928L26.4807 133.067ZM40.2738 130.252C42.1329 130.252 43.6061 130.769 44.6935 131.804C45.7809 132.821 46.3246 134.198 46.3246 135.934C46.3246 136.496 46.2807 136.996 46.193 137.434C46.0878 137.96 45.9738 138.416 45.851 138.802H35.1964C35.1789 138.925 35.1701 139.1 35.1701 139.328C35.1701 140.24 35.4332 140.959 35.9593 141.485C36.503 141.994 37.2133 142.248 38.0903 142.248C38.8269 142.248 39.4583 142.09 39.9844 141.775C40.5281 141.442 40.9666 141.012 41.2998 140.486H45.2723C44.6233 141.889 43.6149 143.046 42.2469 143.958C40.8964 144.853 39.3618 145.3 37.643 145.3C35.7839 145.3 34.2932 144.774 33.1707 143.722C32.0483 142.669 31.487 141.24 31.487 139.433C31.487 138.907 31.5396 138.355 31.6449 137.776C31.9079 136.268 32.4429 134.944 33.2496 133.804C34.0739 132.664 35.0912 131.787 36.3013 131.173C37.5115 130.559 38.8356 130.252 40.2738 130.252ZM42.5363 136.566C42.5713 136.285 42.5889 136.084 42.5889 135.961C42.5889 135.119 42.317 134.461 41.7733 133.988C41.2296 133.514 40.5193 133.277 39.6424 133.277C38.7129 133.277 37.8798 133.576 37.1432 134.172C36.4066 134.751 35.8892 135.549 35.591 136.566H42.5363ZM56.5106 130.252C58.3696 130.252 59.8429 130.769 60.9303 131.804C62.0176 132.821 62.5613 134.198 62.5613 135.934C62.5613 136.496 62.5175 136.996 62.4298 137.434C62.3246 137.96 62.2106 138.416 62.0878 138.802H51.4332C51.4156 138.925 51.4069 139.1 51.4069 139.328C51.4069 140.24 51.67 140.959 52.1961 141.485C52.7398 141.994 53.4501 142.248 54.327 142.248C55.0636 142.248 55.695 142.09 56.2212 141.775C56.7649 141.442 57.2033 141.012 57.5366 140.486H61.509C60.8601 141.889 59.8516 143.046 58.4836 143.958C57.1332 144.853 55.5986 145.3 53.8798 145.3C52.0207 145.3 50.53 144.774 49.4075 143.722C48.285 142.669 47.7238 141.24 47.7238 139.433C47.7238 138.907 47.7764 138.355 47.8816 137.776C48.1447 136.268 48.6796 134.944 49.4864 133.804C50.3107 132.664 51.328 131.787 52.5381 131.173C53.7483 130.559 55.0724 130.252 56.5106 130.252ZM58.773 136.566C58.8081 136.285 58.8256 136.084 58.8256 135.961C58.8256 135.119 58.5538 134.461 58.0101 133.988C57.4664 133.514 56.7561 133.277 55.8792 133.277C54.9496 133.277 54.1166 133.576 53.38 134.172C52.6433 134.751 52.126 135.549 51.8278 136.566H58.773ZM74.431 130.278C75.9393 130.278 77.1232 130.69 77.9826 131.515C78.8595 132.322 79.298 133.479 79.298 134.987C79.298 135.549 79.2541 136.057 79.1664 136.513L77.6406 145.063H73.9838L75.4044 137.013C75.457 136.697 75.4833 136.39 75.4833 136.092C75.4833 135.215 75.2466 134.549 74.773 134.093C74.317 133.637 73.6593 133.409 72.8 133.409C71.8178 133.409 70.976 133.707 70.2744 134.303C69.5904 134.882 69.1344 135.724 68.9064 136.829L67.4595 145.063H63.7501L66.3283 130.489H70.0377L69.722 132.278C70.3183 131.664 71.0286 131.182 71.8529 130.831C72.6772 130.462 73.5366 130.278 74.431 130.278ZM103.941 126.7L103.415 129.594H98.5476L95.8116 145.063H92.1022L94.8382 129.594H89.945L90.4711 126.7H103.941ZM114.205 130.278C115.643 130.278 116.783 130.69 117.625 131.515C118.484 132.339 118.914 133.497 118.914 134.987C118.914 135.549 118.87 136.057 118.782 136.513L117.256 145.063H113.6L115.02 137.013C115.073 136.697 115.099 136.39 115.099 136.092C115.099 135.215 114.862 134.549 114.389 134.093C113.933 133.637 113.275 133.409 112.416 133.409C111.434 133.409 110.6 133.707 109.916 134.303C109.232 134.882 108.776 135.715 108.548 136.803L107.075 145.063H103.366L106.812 125.596H110.522L109.338 132.278C109.934 131.664 110.653 131.182 111.495 130.831C112.354 130.462 113.258 130.278 114.205 130.278ZM126.599 133.067C127.23 132.19 127.967 131.506 128.809 131.015C129.651 130.524 130.563 130.278 131.545 130.278L130.861 134.146H129.887C128.8 134.146 127.923 134.382 127.257 134.856C126.608 135.329 126.134 136.136 125.836 137.276L124.468 145.063H120.759L123.337 130.489H127.046L126.599 133.067ZM140.392 130.252C142.251 130.252 143.724 130.769 144.812 131.804C145.899 132.821 146.443 134.198 146.443 135.934C146.443 136.496 146.399 136.996 146.311 137.434C146.206 137.96 146.092 138.416 145.969 138.802H135.315C135.297 138.925 135.288 139.1 135.288 139.328C135.288 140.24 135.551 140.959 136.078 141.485C136.621 141.994 137.332 142.248 138.208 142.248C138.945 142.248 139.576 142.09 140.103 141.775C140.646 141.442 141.085 141.012 141.418 140.486H145.39C144.742 141.889 143.733 143.046 142.365 143.958C141.015 144.853 139.48 145.3 137.761 145.3C135.902 145.3 134.411 144.774 133.289 143.722C132.166 142.669 131.605 141.24 131.605 139.433C131.605 138.907 131.658 138.355 131.763 137.776C132.026 136.268 132.561 134.944 133.368 133.804C134.192 132.664 135.209 131.787 136.42 131.173C137.63 130.559 138.954 130.252 140.392 130.252ZM142.654 136.566C142.69 136.285 142.707 136.084 142.707 135.961C142.707 135.119 142.435 134.461 141.892 133.988C141.348 133.514 140.638 133.277 139.761 133.277C138.831 133.277 137.998 133.576 137.261 134.172C136.525 134.751 136.007 135.549 135.709 136.566H142.654ZM148 137.723C148.263 136.25 148.78 134.944 149.552 133.804C150.341 132.664 151.297 131.787 152.42 131.173C153.542 130.559 154.726 130.252 155.971 130.252C157.059 130.252 157.971 130.471 158.707 130.91C159.461 131.348 160.014 131.901 160.365 132.567L160.733 130.489H164.442L161.864 145.063H158.155L158.549 142.932C157.971 143.616 157.216 144.186 156.287 144.642C155.375 145.081 154.375 145.3 153.288 145.3C152.218 145.3 151.271 145.063 150.447 144.59C149.622 144.099 148.982 143.415 148.526 142.538C148.07 141.643 147.842 140.608 147.842 139.433C147.842 138.89 147.895 138.32 148 137.723ZM159.444 137.776C159.514 137.32 159.549 136.987 159.549 136.776C159.549 135.742 159.242 134.935 158.628 134.356C158.032 133.777 157.278 133.488 156.366 133.488C155.682 133.488 155.015 133.654 154.366 133.988C153.735 134.321 153.183 134.812 152.709 135.461C152.235 136.092 151.92 136.846 151.762 137.723C151.709 138.057 151.683 138.372 151.683 138.67C151.683 139.723 151.981 140.556 152.577 141.17C153.174 141.766 153.928 142.064 154.84 142.064C155.524 142.064 156.19 141.898 156.839 141.564C157.488 141.214 158.041 140.714 158.497 140.065C158.97 139.416 159.286 138.653 159.444 137.776ZM165.83 137.723C166.093 136.25 166.61 134.944 167.382 133.804C168.171 132.664 169.127 131.787 170.249 131.173C171.389 130.559 172.582 130.252 173.827 130.252C174.774 130.252 175.642 130.462 176.432 130.883C177.221 131.287 177.808 131.83 178.194 132.514L179.431 125.596H183.14L179.694 145.063H175.984L176.379 142.906C175.8 143.625 175.055 144.204 174.143 144.642C173.248 145.081 172.257 145.3 171.17 145.3C170.1 145.3 169.144 145.063 168.302 144.59C167.478 144.099 166.829 143.415 166.356 142.538C165.9 141.643 165.672 140.608 165.672 139.433C165.672 138.89 165.724 138.32 165.83 137.723ZM177.273 137.776C177.344 137.32 177.379 136.987 177.379 136.776C177.379 135.742 177.072 134.935 176.458 134.356C175.862 133.777 175.107 133.488 174.195 133.488C173.511 133.488 172.845 133.654 172.196 133.988C171.565 134.321 171.012 134.812 170.539 135.461C170.065 136.092 169.749 136.846 169.592 137.723C169.539 138.057 169.513 138.372 169.513 138.67C169.513 139.723 169.811 140.556 170.407 141.17C171.003 141.766 171.758 142.064 172.67 142.064C173.354 142.064 174.02 141.898 174.669 141.564C175.318 141.214 175.87 140.714 176.326 140.065C176.8 139.416 177.116 138.653 177.273 137.776ZM189 145.3C187.93 145.3 186.956 145.125 186.079 144.774C185.22 144.406 184.536 143.906 184.027 143.274C183.536 142.625 183.291 141.889 183.291 141.064C183.291 140.942 183.308 140.74 183.343 140.459H186.921C186.869 141.073 187.053 141.573 187.474 141.959C187.895 142.327 188.491 142.511 189.263 142.511C189.964 142.511 190.543 142.389 190.999 142.143C191.473 141.88 191.709 141.503 191.709 141.012C191.709 140.573 191.49 140.223 191.052 139.96C190.631 139.696 189.955 139.398 189.026 139.065C188.096 138.732 187.325 138.407 186.711 138.092C186.097 137.776 185.571 137.338 185.132 136.776C184.694 136.215 184.475 135.505 184.475 134.645C184.475 133.786 184.72 133.023 185.211 132.357C185.72 131.69 186.421 131.173 187.316 130.804C188.21 130.436 189.236 130.252 190.394 130.252C191.499 130.252 192.472 130.436 193.314 130.804C194.156 131.173 194.805 131.69 195.261 132.357C195.734 133.006 195.971 133.751 195.971 134.593C195.971 134.803 195.962 134.961 195.945 135.066H192.525C192.577 134.452 192.402 133.961 191.999 133.593C191.595 133.225 191.008 133.041 190.236 133.041C189.605 133.041 189.087 133.181 188.684 133.462C188.281 133.725 188.079 134.084 188.079 134.54C188.079 134.996 188.307 135.373 188.763 135.671C189.219 135.952 189.92 136.268 190.867 136.618C191.815 136.987 192.569 137.329 193.13 137.644C193.709 137.943 194.209 138.364 194.629 138.907C195.05 139.433 195.261 140.1 195.261 140.907C195.261 141.801 194.989 142.582 194.445 143.248C193.902 143.914 193.156 144.423 192.209 144.774C191.262 145.125 190.192 145.3 189 145.3Z" fill="white"/>
<path d="M149.056 164.896C147.973 164.896 147.081 164.653 146.379 164.168C145.688 163.673 145.342 162.982 145.342 162.095C145.342 162.002 145.353 161.863 145.373 161.677H147.586C147.545 162.11 147.658 162.466 147.927 162.745C148.205 163.023 148.608 163.162 149.134 163.162C149.66 163.162 150.073 163.054 150.372 162.837C150.681 162.611 150.836 162.291 150.836 161.878C150.836 161.496 150.676 161.192 150.356 160.965C150.047 160.738 149.557 160.485 148.886 160.207C148.267 159.949 147.762 159.712 147.37 159.495C146.988 159.278 146.658 158.979 146.379 158.597C146.111 158.205 145.977 157.715 145.977 157.127C145.977 156.457 146.147 155.874 146.487 155.378C146.838 154.883 147.313 154.502 147.911 154.233C148.52 153.965 149.211 153.831 149.985 153.831C150.748 153.831 151.409 153.96 151.966 154.218C152.533 154.465 152.956 154.821 153.235 155.286C153.524 155.75 153.647 156.292 153.606 156.911H151.3L151.316 156.74C151.316 156.4 151.187 156.121 150.929 155.905C150.681 155.688 150.33 155.58 149.877 155.58C149.392 155.58 149 155.693 148.7 155.92C148.401 156.147 148.252 156.457 148.252 156.849C148.252 157.107 148.334 157.334 148.499 157.53C148.675 157.715 148.886 157.88 149.134 158.025C149.381 158.159 149.737 158.334 150.202 158.551C150.81 158.819 151.311 159.072 151.703 159.309C152.095 159.546 152.43 159.861 152.708 160.253C152.987 160.645 153.126 161.125 153.126 161.692C153.126 162.311 152.956 162.863 152.616 163.348C152.286 163.833 151.811 164.215 151.192 164.493C150.583 164.762 149.871 164.896 149.056 164.896ZM159.693 156.075C160.787 156.075 161.653 156.379 162.293 156.988C162.933 157.586 163.252 158.396 163.252 159.417C163.252 159.748 163.227 160.042 163.175 160.3C163.113 160.609 163.046 160.877 162.974 161.104H156.707C156.696 161.176 156.691 161.28 156.691 161.414C156.691 161.95 156.846 162.373 157.155 162.683C157.475 162.982 157.893 163.132 158.409 163.132C158.842 163.132 159.213 163.039 159.523 162.853C159.843 162.657 160.101 162.404 160.297 162.095H162.633C162.252 162.92 161.659 163.601 160.854 164.137C160.059 164.664 159.157 164.927 158.146 164.927C157.052 164.927 156.175 164.617 155.515 163.998C154.855 163.379 154.525 162.538 154.525 161.476C154.525 161.166 154.555 160.841 154.617 160.501C154.772 159.614 155.087 158.835 155.561 158.164C156.046 157.493 156.645 156.978 157.356 156.616C158.068 156.255 158.847 156.075 159.693 156.075ZM161.024 159.789C161.045 159.624 161.055 159.505 161.055 159.433C161.055 158.938 160.895 158.551 160.575 158.272C160.255 157.994 159.838 157.855 159.322 157.855C158.775 157.855 158.285 158.03 157.852 158.381C157.418 158.721 157.114 159.191 156.939 159.789H161.024ZM168.161 153.336L166.134 164.787H163.952L165.979 153.336H168.161ZM172.468 153.336L170.441 164.787H168.259L170.286 153.336H172.468ZM177.858 156.075C178.952 156.075 179.819 156.379 180.458 156.988C181.098 157.586 181.418 158.396 181.418 159.417C181.418 159.748 181.392 160.042 181.34 160.3C181.278 160.609 181.211 160.877 181.139 161.104H174.872C174.861 161.176 174.856 161.28 174.856 161.414C174.856 161.95 175.011 162.373 175.32 162.683C175.64 162.982 176.058 163.132 176.574 163.132C177.007 163.132 177.379 163.039 177.688 162.853C178.008 162.657 178.266 162.404 178.462 162.095H180.799C180.417 162.92 179.824 163.601 179.019 164.137C178.225 164.664 177.322 164.927 176.311 164.927C175.217 164.927 174.34 164.617 173.68 163.998C173.02 163.379 172.69 162.538 172.69 161.476C172.69 161.166 172.721 160.841 172.782 160.501C172.937 159.614 173.252 158.835 173.726 158.164C174.211 157.493 174.81 156.978 175.522 156.616C176.233 156.255 177.012 156.075 177.858 156.075ZM179.189 159.789C179.21 159.624 179.22 159.505 179.22 159.433C179.22 158.938 179.06 158.551 178.74 158.272C178.421 157.994 178.003 157.855 177.487 157.855C176.94 157.855 176.45 158.03 176.017 158.381C175.583 158.721 175.279 159.191 175.104 159.789H179.189ZM185.552 157.731C185.924 157.215 186.357 156.813 186.852 156.524C187.347 156.235 187.884 156.09 188.462 156.09L188.059 158.365H187.487C186.847 158.365 186.331 158.504 185.939 158.783C185.558 159.062 185.279 159.536 185.104 160.207L184.299 164.787H182.117L183.633 156.214H185.815L185.552 157.731ZM191.732 164.927C191.102 164.927 190.53 164.823 190.014 164.617C189.508 164.4 189.106 164.106 188.807 163.735C188.518 163.353 188.373 162.92 188.373 162.435C188.373 162.363 188.384 162.244 188.404 162.079H190.509C190.478 162.44 190.586 162.734 190.834 162.961C191.082 163.178 191.432 163.286 191.886 163.286C192.299 163.286 192.639 163.214 192.908 163.07C193.186 162.915 193.325 162.693 193.325 162.404C193.325 162.146 193.197 161.94 192.939 161.785C192.691 161.63 192.294 161.455 191.747 161.259C191.2 161.063 190.746 160.872 190.385 160.686C190.024 160.501 189.715 160.243 189.457 159.913C189.199 159.583 189.07 159.165 189.07 158.659C189.07 158.154 189.214 157.705 189.503 157.313C189.802 156.921 190.215 156.616 190.741 156.4C191.267 156.183 191.871 156.075 192.552 156.075C193.202 156.075 193.774 156.183 194.269 156.4C194.765 156.616 195.146 156.921 195.415 157.313C195.693 157.695 195.832 158.133 195.832 158.628C195.832 158.752 195.827 158.845 195.817 158.907H193.805C193.836 158.546 193.733 158.257 193.496 158.04C193.258 157.824 192.913 157.715 192.459 157.715C192.087 157.715 191.783 157.798 191.546 157.963C191.309 158.118 191.19 158.329 191.19 158.597C191.19 158.866 191.324 159.087 191.592 159.263C191.86 159.428 192.273 159.614 192.83 159.82C193.387 160.036 193.831 160.238 194.161 160.423C194.502 160.599 194.796 160.846 195.043 161.166C195.291 161.476 195.415 161.868 195.415 162.342C195.415 162.868 195.255 163.328 194.935 163.72C194.615 164.112 194.177 164.411 193.619 164.617C193.062 164.823 192.433 164.927 191.732 164.927Z" fill="white"/>
<g clip-path="url(#clip0_271_1429)">
<path d="M141.3 5.53806C141.173 4.01951 140.479 2.6045 139.356 1.57389C138.233 0.543282 136.764 -0.027587 135.24 -0.0254144H55.4802C54.671 -0.045359 53.8672 0.111933 53.1252 0.435435C52.3831 0.758937 51.7209 1.24082 51.1847 1.8473C50.6486 2.45379 50.2516 3.1702 50.0216 3.94631C49.7915 4.72242 49.734 5.53945 49.8531 6.34012C52.9213 33.661 72.629 93.2679 38.7007 100.614H54.4872C66.6013 100.614 78.5824 98.0896 89.6663 93.2011C100.75 88.3126 110.693 81.1675 118.862 72.2217C127.03 63.2759 133.244 52.7258 137.108 41.2443C140.971 29.7629 142.399 17.6022 141.3 5.53806Z" fill="white"/>
<path d="M146.609 5.63965C149.512 32.3749 137.201 57.8371 121.72 74.8331C116.788 80.2176 111.232 84.9957 105.169 89.0664C132.185 74.7949 156.425 47.3721 158.882 14.2968L146.609 5.63965Z" fill="white"/>
<path d="M82.3681 12.4001C82.3681 13.4451 82.0582 14.4666 81.4777 15.3354C80.8971 16.2043 80.0719 16.8814 79.1065 17.2813C78.1411 17.6812 77.0788 17.7859 76.0539 17.582C75.0291 17.3781 74.0876 16.8749 73.3487 16.136C72.6098 15.3971 72.1067 14.4557 71.9028 13.4309C71.6989 12.406 71.8036 11.3437 72.2034 10.3782C72.6033 9.41283 73.2805 8.58768 74.1494 8.00713C75.0182 7.42658 76.0397 7.11671 77.0847 7.11671C77.779 7.11504 78.4668 7.25054 79.1085 7.51546C79.7503 7.78038 80.3334 8.16949 80.8243 8.66044C81.3153 9.15138 81.7044 9.73449 81.9693 10.3763C82.2342 11.018 82.3697 11.7058 82.3681 12.4001Z" fill="black"/>
<path d="M118.448 12.4001C118.448 13.4451 118.138 14.4666 117.558 15.3354C116.977 16.2043 116.152 16.8814 115.187 17.2813C114.221 17.6812 113.159 17.7859 112.134 17.582C111.109 17.3781 110.168 16.8749 109.429 16.136C108.69 15.3971 108.187 14.4557 107.983 13.4309C107.779 12.406 107.884 11.3437 108.284 10.3782C108.683 9.41283 109.361 8.58768 110.229 8.00713C111.098 7.42658 112.12 7.11671 113.165 7.11671C113.859 7.11504 114.547 7.25054 115.189 7.51546C115.83 7.78038 116.413 8.16949 116.904 8.66044C117.395 9.15138 117.784 9.73449 118.049 10.3763C118.314 11.018 118.45 11.7058 118.448 12.4001Z" fill="black"/>
<path d="M75.3149 12.9602H78.8796V40.1793C78.8796 44.491 80.5925 48.6262 83.6414 51.6751C86.6903 54.724 90.8255 56.4368 95.1372 56.4368C99.449 56.4368 103.584 54.724 106.633 51.6751C109.682 48.6262 111.395 44.491 111.395 40.1793V12.9602H114.96V40.1793C114.96 45.4365 112.871 50.4783 109.154 54.1957C105.436 57.9131 100.394 60.0015 95.1372 60.0015C89.88 60.0015 84.8382 57.9131 81.1208 54.1957C77.4034 50.4783 75.3149 45.4365 75.3149 40.1793V12.9602Z" fill="black"/>
</g>
<defs>
<clipPath id="clip0_271_1429">
<rect width="120.22" height="100.588" fill="white" transform="translate(38.688)"/>
</clipPath>
</defs>
</svg>
