<svg width="176" height="135" viewBox="0 0 176 135" fill="none" xmlns="http://www.w3.org/2000/svg">
<path d="M138.094 72.4699C141.833 68.9819 144.848 64.7915 146.968 60.1382C149.087 55.4849 150.269 50.4597 150.446 45.3496C150.623 40.2394 149.792 35.1444 148 30.3555C146.208 25.5665 143.491 21.1775 140.002 17.4389C136.514 13.7001 132.324 10.6849 127.671 8.5656C123.017 6.44628 117.992 5.26428 112.882 5.0871C107.772 4.90993 102.677 5.74104 97.888 7.533C93.099 9.32495 88.71 12.0426 84.9714 15.5309C78.5711 21.5047 74.3705 29.4609 73.0474 38.1154C71.7244 46.7699 73.3562 55.6177 77.6794 63.2309L69.7574 70.6209L71.6514 83.7719L59.3574 80.3259L49.4444 89.5729L51.3383 102.722L39.0444 99.2769L30.5233 107.225L31.6764 115.24L24.1844 113.14L19.2263 117.767L18.4844 129.946L36.6483 134.516L95.5864 79.5309C102.58 82.6675 110.344 83.6706 117.906 82.4146C125.467 81.1586 132.49 77.6992 138.094 72.4699ZM132.337 24.5909C133.338 25.6632 134.118 26.9222 134.632 28.2958C135.146 29.6695 135.384 31.1309 135.333 32.5967C135.282 34.0625 134.943 35.5039 134.336 36.8387C133.728 38.1734 132.863 39.3754 131.79 40.3759C129.624 42.3968 126.744 43.4745 123.784 43.3719C120.823 43.2693 118.024 41.9949 116.003 39.8289C113.983 37.6627 112.905 34.7825 113.008 31.8219C113.111 28.8613 114.385 26.0627 116.551 24.0419C117.624 23.0414 118.883 22.262 120.257 21.7481C121.63 21.2343 123.092 20.996 124.558 21.047C126.023 21.098 127.465 21.4372 128.799 22.0453C130.134 22.6533 131.336 23.5183 132.336 24.5909H132.337Z" fill="black"/>
<path d="M132.338 24.5907C132.268 24.6637 131.609 23.9097 130.119 22.9907C128.011 21.7136 125.54 21.171 123.091 21.4477C121.304 21.6507 119.595 22.2951 118.118 23.323C116.642 24.3508 115.444 25.7298 114.633 27.3357C113.653 29.2979 113.293 31.512 113.601 33.6837C113.91 35.8554 114.871 37.8818 116.359 39.4937C117.864 41.0899 119.82 42.1905 121.965 42.6492C124.111 43.1079 126.345 42.903 128.371 42.0617C130.029 41.3639 131.488 40.2645 132.616 38.8626C133.743 37.4606 134.504 35.8001 134.83 34.0307C135.277 31.6066 134.906 29.1028 133.777 26.9117C132.967 25.3627 132.26 24.6527 132.338 24.5877C132.364 24.5647 132.545 24.7297 132.873 25.0697C133.35 25.5706 133.765 26.1273 134.108 26.7277C135.425 28.9615 135.921 31.5854 135.508 34.1457C135.205 36.0562 134.424 37.859 133.238 39.3868C132.051 40.9147 130.498 42.1179 128.722 42.8847C126.611 43.8062 124.272 44.069 122.009 43.6387C119.573 43.1842 117.345 41.9644 115.649 40.1567C113.964 38.3401 112.903 36.0332 112.619 33.5717C112.347 31.2855 112.771 28.9704 113.835 26.9287C114.724 25.2105 116.032 23.7446 117.638 22.6668C119.245 21.5891 121.097 20.9345 123.024 20.7637C125.606 20.5296 128.188 21.2052 130.324 22.6737C130.9 23.0575 131.427 23.5098 131.893 24.0207C132.21 24.3747 132.364 24.5687 132.338 24.5907Z" fill="black"/>
<path d="M138.095 72.4708C138.095 72.4708 137.915 72.6618 137.534 73.0098L135.82 74.5378C133.491 76.4054 130.964 78.0117 128.284 79.3278C123.937 81.4002 119.248 82.6602 114.448 83.0458C107.95 83.5367 101.432 82.4219 95.4668 79.7998L95.7868 79.7468L36.9478 134.837L36.7728 135L36.5418 134.942L18.3728 130.388L18.0068 130.296L18.0298 129.918C18.2578 126.118 18.5088 121.958 18.7628 117.739L18.7738 117.555L18.9099 117.429L23.8648 112.799L24.0569 112.619L24.3128 112.69C26.6468 113.342 29.2128 114.061 31.8048 114.79L31.2048 115.312C30.8428 112.812 30.4468 110.064 30.0468 107.299L30.0108 107.052L30.1938 106.882L38.7098 98.9298L38.9099 98.7458L39.1698 98.8188L51.4638 102.262L50.8539 102.797C50.2539 98.6298 49.6088 94.1548 48.9598 89.6478L48.9238 89.3958L49.1078 89.2228C49.9378 88.4498 50.8368 87.6118 51.7358 86.7708C54.1778 84.4921 56.6062 82.2255 59.0208 79.9708L59.2209 79.7848L59.4848 79.8588C63.6182 81.0168 67.7155 82.1661 71.7769 83.3068L71.1689 83.8408C70.5315 79.4128 69.9018 75.0291 69.2798 70.6898L69.2438 70.4428L69.4268 70.2718L77.3528 62.8848L77.2639 63.4668C74.2092 58.0367 72.4751 51.9641 72.2018 45.7398C72.0559 42.7218 72.2724 39.6972 72.8468 36.7308C73.3792 33.8174 74.249 30.9759 75.4388 28.2638C77.6958 23.1289 81.0216 18.5342 85.1946 14.7862C89.3677 11.0383 94.2919 8.22323 99.6389 6.52881C109.277 3.50158 119.71 4.28906 128.785 8.7288C136.563 12.5648 142.861 18.8555 146.707 26.6288C149.804 32.9702 151.127 40.0314 150.536 47.0638C150.119 52.3067 148.633 57.4087 146.168 62.0548C145.919 62.5301 145.678 62.9925 145.444 63.4418L144.644 64.6758C144.115 65.4638 143.674 66.2378 143.167 66.8868C142.116 68.1518 141.309 69.2868 140.515 70.0808L138.715 71.8808C138.308 72.2808 138.086 72.4698 138.086 72.4698C138.086 72.4698 138.269 72.2388 138.655 71.8198L140.389 69.9698C141.159 69.1628 141.94 68.0148 142.962 66.7418C143.455 66.0898 143.881 65.3138 144.396 64.5248L145.172 63.2908C145.4 62.8415 145.633 62.3801 145.872 61.9068C148.257 57.2818 149.681 52.2212 150.056 47.0308C150.586 40.0937 149.239 33.1418 146.156 26.9048C142.338 19.2857 136.124 13.1311 128.469 9.3868C119.561 5.06853 109.337 4.32705 99.8988 7.3148C94.6739 8.98402 89.8644 11.7469 85.7903 15.4195C81.7163 19.0922 78.4711 23.5904 76.2708 28.6148C75.1138 31.2673 74.2688 34.0453 73.7528 36.8928C73.1946 39.7907 72.9871 42.7453 73.1348 45.6928C73.4092 51.7686 75.1082 57.6947 78.0948 62.9928L78.2778 63.3228L78.0058 63.5768C75.3925 66.0155 72.7529 68.4801 70.0869 70.9708L70.2339 70.5518C70.8599 74.8851 71.4932 79.2681 72.1339 83.7008L72.2388 84.4348L71.5238 84.2348L59.2298 80.7918L59.6908 80.6788C57.2795 82.9301 54.8515 85.1968 52.4068 87.4788C51.5068 88.3178 50.6069 89.1558 49.7809 89.9308L49.9298 89.5058C50.5778 94.0128 51.2218 98.4878 51.8208 102.657L51.9279 103.393L51.2119 103.193L38.9178 99.7438L39.3768 99.6338C36.4418 102.369 33.5328 105.082 30.8548 107.579L30.9998 107.162C31.3998 109.927 31.7908 112.673 32.1498 115.177L32.2498 115.897L31.5498 115.697C28.9628 114.971 26.3928 114.25 24.0588 113.597L24.5049 113.489L19.5439 118.112L19.6908 117.8C19.4308 122.019 19.1728 126.182 18.9388 129.979L18.5959 129.508L36.7549 134.098L36.3488 134.198L95.3848 79.3178L95.5269 79.1848L95.7048 79.2638C101.577 81.882 108 83.0242 114.414 82.5908C119.168 82.2449 123.822 81.0429 128.149 79.0428C130.825 77.7643 133.362 76.2127 135.719 74.4128C136.476 73.7818 137.058 73.2988 137.48 72.9488C137.878 72.6208 138.095 72.4708 138.095 72.4708Z" fill="black"/>
<path d="M136.79 68.0509C140.529 64.5629 143.544 60.3725 145.663 55.7192C147.782 51.0659 148.964 46.0407 149.142 40.9305C149.319 35.8204 148.488 30.7254 146.696 25.9365C144.904 21.1475 142.186 16.7585 138.698 13.0199C131.653 5.46949 121.898 1.02673 111.577 0.668916C101.257 0.311099 91.2174 4.06752 83.6667 11.1119C77.2665 17.0857 73.0659 25.0419 71.7428 33.6964C70.4198 42.3509 72.0515 51.1987 76.3747 58.8119L76.3647 58.8229L68.4537 66.2019L70.3457 79.3529L58.0517 75.9069L48.1397 85.1539L50.0317 98.3049L37.7377 94.8589L29.2167 102.807L30.3717 110.822L22.8797 108.722L17.9197 113.349L17.1777 125.528L35.3417 130.1L94.2798 75.1129C101.274 78.2498 109.038 79.253 116.6 77.9967C124.162 76.7405 131.185 73.2808 136.79 68.0509ZM131.034 20.1719C133.055 22.338 134.132 25.2182 134.029 28.1789C133.926 31.1395 132.652 33.938 130.486 35.9589C128.32 37.9796 125.439 39.0572 122.479 38.9544C119.518 38.8516 116.72 37.577 114.699 35.4109C113.698 34.3384 112.919 33.0795 112.405 31.7058C111.891 30.3321 111.653 28.8707 111.703 27.4049C111.754 25.9391 112.093 24.4977 112.701 23.1629C113.309 21.8282 114.174 20.6263 115.247 19.6259C117.413 17.6048 120.293 16.527 123.253 16.6294C126.214 16.7318 129.013 18.006 131.034 20.1719Z" fill="black"/>
<path d="M131.035 20.1709C130.964 20.2439 130.304 19.4919 128.816 18.5709C126.708 17.2922 124.235 16.7495 121.786 17.0279C119.998 17.2307 118.289 17.8751 116.812 18.9029C115.336 19.9308 114.138 21.3099 113.328 22.9159C112.347 24.8778 111.987 27.0917 112.296 29.2632C112.604 31.4346 113.566 33.4607 115.055 35.0719C116.559 36.6685 118.514 37.7694 120.66 38.2281C122.805 38.6868 125.04 38.4816 127.066 37.6399C128.724 36.9419 130.183 35.8425 131.311 34.4406C132.439 33.0387 133.2 31.3783 133.527 29.6089C133.972 27.1846 133.602 24.681 132.473 22.4899C131.663 20.9409 130.956 20.2319 131.035 20.1659C131.059 20.1429 131.24 20.3079 131.569 20.6499C132.046 21.1507 132.46 21.7074 132.804 22.3079C134.121 24.5409 134.616 27.1643 134.204 29.7239C133.9 31.6344 133.119 33.4372 131.932 34.965C130.746 36.4927 129.193 37.696 127.417 38.4629C125.306 39.3845 122.966 39.6473 120.704 39.2169C118.267 38.7631 116.039 37.5432 114.344 35.7349C112.658 33.9184 111.596 31.6115 111.313 29.1499C111.04 26.8637 111.465 24.5487 112.531 22.5079C113.419 20.7895 114.726 19.3234 116.333 18.2454C117.939 17.1675 119.791 16.5127 121.718 16.3419C124.299 16.109 126.881 16.7845 129.018 18.2519C129.592 18.6371 130.119 19.0892 130.587 19.5989C130.907 19.9549 131.059 20.1489 131.035 20.1709Z" fill="black"/>
<path d="M136.79 68.0509C136.79 68.0509 136.61 68.2429 136.23 68.5899C135.819 68.9549 135.253 69.4619 134.514 70.1179C132.186 71.9858 129.659 73.5921 126.98 74.9079C122.633 76.9798 117.944 78.2401 113.144 78.6269C106.646 79.1173 100.127 78.0023 94.1621 75.3799L94.4821 75.3269L35.6431 130.419L35.4701 130.581L35.2371 130.523L17.0711 125.968L16.7061 125.876L16.7291 125.499C16.9571 121.699 17.2081 117.538 17.4621 113.32L17.4731 113.134L17.6091 113.008C19.1471 111.57 20.8501 109.981 22.5661 108.378L22.7581 108.198L23.0121 108.269L30.5041 110.369L29.9041 110.891C29.5421 108.391 29.1461 105.643 28.7461 102.878L28.7101 102.632L28.8931 102.461L37.4111 94.5089L37.6111 94.3249L37.8711 94.3979L50.1711 97.8409L49.5601 98.3759C48.9601 94.2089 48.3161 89.7339 47.6661 85.2269L47.6301 84.9759L47.8161 84.8009L50.4421 82.3509C52.8854 80.0722 55.3137 77.8056 57.7271 75.5509L57.9271 75.3629L58.1911 75.4369L70.4851 78.8849L69.8751 79.4189C69.2397 74.9909 68.6101 70.6079 67.9861 66.2699L67.9501 66.0209L68.1331 65.8499C70.7997 63.3626 73.4417 60.9002 76.0591 58.4629L75.9701 59.0469C72.916 53.6159 71.182 47.5427 70.9081 41.3179C70.762 38.3002 70.9785 35.276 71.5531 32.3099C72.0867 29.3962 72.9565 26.5542 74.1451 23.8409C76.4022 18.7061 79.7281 14.1116 83.9011 10.3636C88.0741 6.61571 92.9982 3.80056 98.3451 2.1059C107.984 -0.919878 118.416 -0.132441 127.491 4.3059C135.269 8.14248 141.567 14.4329 145.414 22.2059C148.51 28.5476 149.832 35.6087 149.242 42.6409C148.826 47.8846 147.339 52.9873 144.874 57.6339L144.15 59.0199L143.35 60.2549C142.821 61.0429 142.38 61.8159 141.874 62.4639C140.823 63.7299 140.016 64.8639 139.223 65.6579C138.448 66.4329 137.852 67.0259 137.423 67.4579C137.015 67.8579 136.792 68.0469 136.792 68.0469C136.792 68.0469 136.975 67.8169 137.361 67.3969L139.095 65.5489C139.865 64.7419 140.646 63.5919 141.67 62.3199C142.162 61.6679 142.589 60.8919 143.103 60.1039C143.354 59.7039 143.613 59.2919 143.881 58.8679L144.581 57.4839C146.967 52.8592 148.391 47.7985 148.765 42.6079C149.296 35.6707 147.949 28.7186 144.865 22.4819C141.045 14.8625 134.829 8.70845 127.171 4.9659C118.261 0.647677 108.035 -0.093092 98.5961 2.89589C93.3707 4.56612 88.561 7.33003 84.487 11.0037C80.413 14.6774 77.168 19.1766 74.9681 24.2019C73.811 26.8541 72.966 29.6317 72.4501 32.4789C71.8926 35.3769 71.6851 38.3314 71.8321 41.2789C72.1074 47.3545 73.8064 53.2804 76.7921 58.5789L76.9751 58.9069L76.7031 59.1609L68.7841 66.5549L68.9311 66.1359L70.8311 79.2849L70.9361 80.0209L70.2211 79.8209L57.9271 76.3759L58.3901 76.2639L51.1051 83.0639C50.2051 83.9049 49.3051 84.7429 48.4791 85.5159L48.6281 85.0919C49.2761 89.5989 49.9201 94.0719 50.5181 98.2409L50.6251 98.9779L49.9091 98.7779C45.6851 97.5939 41.4971 96.4189 37.6171 95.3299L38.0751 95.2179L29.5531 103.163L29.7001 102.746C30.1001 105.511 30.4891 108.257 30.8481 110.761L30.9481 111.481L30.2481 111.281L22.7571 109.181L23.2031 109.071C21.4871 110.671 19.7831 112.26 18.2421 113.694L18.3891 113.383L17.6371 125.56L17.2941 125.091L35.4531 129.679L35.0531 129.784L94.0881 74.9019L94.2321 74.7689L94.4101 74.8479C100.281 77.4658 106.703 78.6076 113.117 78.1739C117.871 77.8278 122.524 76.6265 126.852 74.6279C129.529 73.3496 132.066 71.7973 134.422 69.9959L136.183 68.5319C136.571 68.2029 136.79 68.0509 136.79 68.0509Z" fill="black"/>
<path d="M133.214 65.009C135.13 62.9512 136.879 60.7443 138.444 58.409C140.221 55.6396 141.569 52.6183 142.444 49.447C143.637 45.2605 144.015 40.8839 143.557 36.555C143.022 31.309 141.263 26.2617 138.424 21.818C135.16 16.7214 130.595 12.5882 125.2 9.84497C122.311 8.34309 119.208 7.29482 116 6.73698C114.348 6.43443 112.678 6.24168 111 6.15997C109.288 6.12959 107.576 6.21445 105.875 6.41397C98.7402 7.26072 92.0575 10.3488 86.7884 15.234C81.5463 20.1536 78.0005 26.6097 76.6614 33.673C76.3449 35.3575 76.1417 37.0613 76.0534 38.773C76.0177 40.4525 76.0938 42.1326 76.2814 43.802C76.6168 47.0431 77.4481 50.2134 78.7464 53.202C81.1091 58.7743 84.9165 63.615 89.7754 67.224C94.012 70.3645 98.9258 72.4681 104.122 73.366C108.409 74.1223 112.801 74.0483 117.059 73.148C120.284 72.4931 123.391 71.3564 126.277 69.776C128.714 68.3769 131.035 66.7855 133.218 65.017C133.231 65.03 133.098 65.163 132.827 65.412C132.513 65.695 132.111 66.054 131.609 66.502C130.96 67.1079 130.261 67.6585 129.52 68.148C128.551 68.8761 127.529 69.5313 126.462 70.108C123.569 71.7694 120.436 72.9742 117.175 73.68C112.851 74.6523 108.38 74.7759 104.008 74.044C98.6876 73.1727 93.6474 71.0585 89.2974 67.873C84.2937 64.2024 80.3657 59.2574 77.9224 53.553C76.5775 50.4885 75.7133 47.2349 75.3604 43.907C75.1632 42.1921 75.0807 40.4659 75.1134 38.74C75.1996 36.9815 75.4044 35.2309 75.7264 33.5C77.0922 26.2338 80.7346 19.5907 86.1264 14.532C91.5447 9.50609 98.4212 6.33385 105.761 5.47398C107.51 5.27211 109.27 5.18892 111.03 5.22498C112.754 5.31084 114.47 5.51128 116.166 5.82497C119.461 6.40788 122.647 7.49497 125.61 9.04797C131.132 11.881 135.794 16.1417 139.11 21.387C141.986 25.9464 143.746 31.1198 144.246 36.487C144.675 40.8989 144.242 45.3521 142.972 49.599C142.042 52.8056 140.621 55.8491 138.761 58.622C138.113 59.6475 137.388 60.6227 136.592 61.539C136.054 62.2448 135.457 62.9038 134.807 63.509L133.635 64.649C133.51 64.7859 133.369 64.9068 133.214 65.009Z" fill="black"/>
<path d="M131.632 37.384C131.554 37.31 132.445 36.545 133.532 34.801C135.045 32.3267 135.693 29.4189 135.372 26.536C135.156 24.5693 134.485 22.68 133.412 21.018C132.18 19.1171 130.466 17.5778 128.444 16.558C126.216 15.424 123.7 14.9831 121.22 15.292C118.557 15.6128 116.065 16.768 114.1 18.592C112.143 20.4267 110.818 22.8337 110.314 25.468C109.832 27.9228 110.098 30.4655 111.076 32.768C111.954 34.8556 113.371 36.6725 115.182 38.033C116.765 39.2187 118.604 40.0188 120.551 40.37C123.404 40.8895 126.35 40.4445 128.923 39.105C130.739 38.143 131.562 37.305 131.632 37.389C131.655 37.413 131.457 37.623 131.055 38.004C130.464 38.5567 129.809 39.0377 129.106 39.437C126.491 40.9651 123.425 41.5348 120.436 41.048C118.364 40.7238 116.4 39.913 114.703 38.682C112.747 37.2604 111.209 35.339 110.251 33.119C109.179 30.6582 108.875 27.9315 109.378 25.295C109.908 22.4561 111.329 19.8601 113.436 17.884C115.553 15.9215 118.241 14.6844 121.109 14.352C123.773 14.0337 126.471 14.5262 128.852 15.765C131 16.8749 132.81 18.5421 134.093 20.592C135.203 22.37 135.875 24.3858 136.056 26.474C136.335 29.4903 135.554 32.5097 133.849 35.013C133.402 35.6874 132.877 36.3066 132.285 36.858C131.878 37.225 131.655 37.408 131.632 37.384Z" fill="black"/>
<path d="M30.5839 127.94C30.3999 127.74 43.6719 115.064 60.2229 99.6229C76.7739 84.1819 90.3459 71.8169 90.5289 72.0129C90.7119 72.2089 77.4429 84.8859 60.8859 100.333C44.3289 115.78 30.7679 128.138 30.5839 127.94Z" fill="black"/>
<path d="M37.9011 50.7689L38.4381 49.5688L39.1611 50.6688C39.7387 51.5522 40.5583 52.2506 41.5221 52.6808L42.7221 53.2188L41.6221 53.9398C40.7395 54.5183 40.0412 55.3377 39.6101 56.3008L39.0731 57.5008L38.3501 56.4009C37.7714 55.5189 36.9521 54.8213 35.9891 54.3908L34.7891 53.8518L35.8891 53.1309C36.7715 52.5517 37.4697 51.7321 37.9011 50.7689Z" fill="black"/>
<path d="M1.80798 41.774L2.12 41.074L2.53897 41.714C2.87502 42.2263 3.35078 42.6316 3.90997 42.882L4.60999 43.194L3.97098 43.613C3.45864 43.949 3.05331 44.4248 2.80298 44.984L2.491 45.684L2.07199 45.044C1.73594 44.5317 1.26018 44.1264 0.700989 43.876L0.000976562 43.564L0.640991 43.145C1.15292 42.8088 1.55788 42.333 1.80798 41.774Z" fill="black"/>
<path d="M115.453 103.284L115.766 102.584L116.185 103.224C116.521 103.736 116.996 104.142 117.556 104.392L118.255 104.704L117.616 105.123C117.104 105.459 116.699 105.935 116.448 106.494L116.137 107.194L115.717 106.554C115.381 106.042 114.906 105.636 114.346 105.386L113.646 105.074L114.286 104.655C114.798 104.319 115.203 103.843 115.453 103.284Z" fill="black"/>
<path d="M171.096 71.7449L171.635 70.5449L172.356 71.6449C172.935 72.5271 173.754 73.2253 174.717 73.6569L175.917 74.1939L174.817 74.9169C173.935 75.4951 173.237 76.3146 172.807 77.2779L172.268 78.4779L171.547 77.3779C170.968 76.4957 170.149 75.7975 169.186 75.3659L167.986 74.8289L169.086 74.1059C169.969 73.5277 170.666 72.7082 171.096 71.7449Z" fill="#F2EBFB"/>
<path d="M163.848 27.563L164.748 25.543L165.961 27.393C166.933 28.8759 168.31 30.0489 169.928 30.773L171.948 31.673L170.098 32.886C168.615 33.8578 167.442 35.2346 166.718 36.853L165.818 38.873L164.605 37.021C163.633 35.5387 162.256 34.3663 160.638 33.643L158.618 32.743L160.47 31.53C161.952 30.558 163.125 29.1812 163.848 27.563Z" fill="black"/>
<path d="M26.6851 13.9399L27.5851 11.9199L28.7981 13.7699C29.7699 15.2528 31.1467 16.4258 32.7651 17.1499L34.7851 18.0499L32.9351 19.2629C31.4525 20.2352 30.2796 21.6118 29.5551 23.2299L28.6551 25.2499L27.4421 23.3999C26.4705 21.9172 25.0936 20.7448 23.4751 20.0219L21.4551 19.1219L23.3071 17.9089C24.7893 16.936 25.9616 15.5586 26.6851 13.9399Z" fill="#F2EBFB"/>
</svg>
